<svg width="157" height="30" viewBox="0 0 157 30" fill="none" xmlns="http://www.w3.org/2000/svg">
<g clip-path="url(#clip0_1432_30254)">
<path d="M65.7216 16.0712C66.0515 16.3452 66.182 16.6607 66.2871 16.9784C66.5445 17.7464 67.0647 18.0412 67.7353 18.0661C68.1722 18.0827 68.6108 18.0682 69.0476 18.0557C69.45 18.0453 69.8252 17.9312 70.1279 17.6073C70.224 17.5035 70.3146 17.3852 70.3762 17.2544C70.5992 16.7853 70.8113 16.3099 71.0233 15.8346C71.491 14.7863 72.216 14.1137 73.2328 13.8895C74.0594 13.7068 74.8931 13.5615 75.7251 13.4038C76.1764 13.3187 76.6296 13.2439 77.1806 13.1443C77.0211 12.972 76.9359 12.8267 76.8181 12.7582C76.4447 12.5464 76.0677 12.3306 75.6744 12.179C75.1632 11.9818 74.6412 11.7908 74.1119 11.6933C73.686 11.6144 73.2401 11.6538 72.8051 11.6891C72.6057 11.7057 72.3991 11.8137 72.225 11.9341C72.0529 12.0524 71.9006 12.0877 71.6831 11.9922C71.6958 11.8614 71.6885 11.7244 71.7248 11.604C72.2359 9.91428 73.4141 9.2334 74.7518 9.53648C75.3807 9.67971 75.9897 9.9641 76.5861 10.2464C77.6156 10.7322 78.6179 11.2926 79.6493 11.7742C80.871 12.343 82.147 12.6544 83.4756 12.6336C83.9179 12.6274 84.0139 12.7955 83.8399 13.2751C83.7185 13.6093 83.5789 13.9352 83.4375 14.259C83.2345 14.724 83.2001 14.751 82.7288 14.6742C82.3554 14.614 81.9857 14.5289 81.6177 14.4458C80.2565 14.1386 78.888 14.1967 77.5177 14.3358C76.4519 14.4438 75.3898 14.5891 74.3421 14.8402C74.2279 14.8672 74.1156 14.917 73.9252 14.9814C74.0648 15.1641 74.1572 15.3115 74.2732 15.4277C75.02 16.1812 75.3318 17.6302 74.9711 18.6868C74.8224 19.1206 74.5651 19.4631 74.237 19.7102C74.0757 19.8326 73.8346 19.8887 73.637 19.87C72.7978 19.789 72.0166 19.5005 71.3315 18.9193C71.0396 18.6722 70.8584 18.666 70.6445 19.0002C70.0282 19.9676 69.1455 20.2001 68.1776 20.2229C67.8042 20.2312 67.4308 20.2229 67.0139 20.2229C66.9904 20.4865 66.9795 20.6858 66.9541 20.883C66.8599 21.6137 66.8128 22.3589 66.6478 23.0689C66.4249 24.032 65.8775 24.7877 65.1869 25.371C64.5579 25.9024 63.8945 26.3819 63.2221 26.8386C61.888 27.7436 60.4344 28.3415 58.9517 28.8148C57.8388 29.1697 56.6896 29.396 55.5495 29.6285C53.2766 30.0893 50.9782 30.0312 48.689 29.9233C47.1555 29.8527 45.6402 29.533 44.134 29.1531C42.6314 28.7753 41.1505 28.3187 39.7096 27.7042C38.3973 27.1458 37.114 26.5064 35.8869 25.728C35.2507 25.3232 34.6996 24.8022 34.2066 24.1794C33.6429 23.4653 33.0121 22.8218 32.414 22.141C32.2835 21.9915 32.0624 21.8711 32.1874 21.5929C32.2672 21.4165 32.4521 21.4393 32.7384 21.6656C33.9184 22.6039 35.1854 23.374 36.4832 24.0632C37.5345 24.6216 38.6238 25.0886 39.7114 25.5453C41.368 26.2407 43.0809 26.7265 44.8137 27.1001C45.8034 27.3139 46.8112 27.4302 47.8135 27.561C48.486 27.6482 49.1639 27.7125 49.8399 27.7436C51.4839 27.8163 53.1279 27.8288 54.7647 27.5797C55.6293 27.4468 56.4975 27.3098 57.3512 27.1105C59.1583 26.6891 60.9129 26.0788 62.5804 25.1634C63.5248 24.6465 64.3894 23.9926 65.2104 23.2578C66.1475 22.4191 66.3125 21.8462 65.93 20.5633C65.7325 19.8991 65.4479 19.2659 65.1706 18.6369C64.9821 18.2072 64.9096 17.8108 65.1361 17.3686C65.2558 17.134 65.3083 16.8538 65.4153 16.6089C65.4914 16.4324 65.6056 16.2746 65.7252 16.0712H65.7216ZM73.9289 17.6219C73.811 16.941 73.0697 16.1148 72.5368 16.0193C72.3755 15.9903 72.0275 16.202 71.9659 16.3639C71.8789 16.5922 71.9604 16.8683 72.158 17.0219C72.2577 17.0988 72.3465 17.1963 72.4534 17.2544C72.9102 17.4994 73.3615 17.8004 73.9289 17.6198V17.6219Z" fill="white"/>
<path d="M153.334 6.4082C153.965 7.36516 154.449 8.28268 154.858 9.23757C155.341 10.3627 155.774 11.521 156.158 12.6959C156.394 13.4142 156.548 14.1781 156.517 14.969C156.49 15.654 156.577 16.3494 156.386 17.022C156.327 17.2337 156.258 17.4413 156.18 17.6447C155.993 18.1159 155.671 18.336 155.216 18.3546C154.088 18.4045 153.118 17.9768 152.27 17.1486C152.167 17.0489 152.067 16.9452 151.938 16.8144C151.853 16.9182 151.766 17.0054 151.701 17.1091C151.58 17.3063 151.469 17.5119 151.357 17.7153C150.952 18.4501 150.358 18.6806 149.64 18.5269C149.151 18.4211 148.674 18.2571 148.279 17.8772C148.165 17.7672 148.038 17.6738 147.889 17.5513C147.804 17.6385 147.721 17.7277 147.632 17.8129C147.001 18.4107 146.305 18.8279 145.459 18.8196C145.082 18.8155 144.703 18.8321 144.329 18.7885C143.8 18.7283 143.338 18.4896 143.051 17.9436C142.928 17.7091 142.796 17.6883 142.607 17.8232C140.931 19.0231 139.042 19.5566 137.146 20.0548C135.575 20.4678 133.981 20.7128 132.374 20.8913C130.657 21.0823 128.943 21.1259 127.224 21.1259C125.08 21.1259 122.947 20.9328 120.826 20.5592C119.731 20.3661 118.693 19.9572 117.677 19.4631C117.6 19.4258 117.532 19.3552 117.471 19.2867C117.261 19.048 117.186 19.0376 116.994 19.2597C116.909 19.3573 116.824 19.4611 116.766 19.5794C116.55 20.0298 116.182 20.1046 115.796 20.0651C115.53 20.0381 115.263 19.9468 115.013 19.8368C114.496 19.6084 113.958 19.4424 113.492 19.0667C113.121 18.7677 113.017 18.8279 112.782 19.2618C112.441 19.8866 112.142 20.5571 111.721 21.1051C111.185 21.8047 110.483 22.2904 109.719 22.6412C109.084 22.9319 108.43 23.1083 107.745 23.1478C107.46 23.1644 107.177 23.2391 106.895 23.2827C106.643 23.32 106.418 23.2723 106.24 22.9381C106.405 22.8281 106.545 22.6952 106.706 22.6371C107.881 22.2116 108.975 21.5805 109.978 20.7875C110.627 20.2748 111.163 19.5732 111.749 18.9546C111.759 18.9421 111.767 18.9255 111.778 18.9151C112.169 18.4958 112.336 17.9955 112.383 17.3707C112.488 15.9986 113.211 15.025 114.172 14.3005C114.721 13.8854 115.575 13.7359 116.264 14.6202C116.604 15.0561 116.914 15.5253 117.233 15.984C117.848 16.8704 118.609 17.489 119.55 17.8793C120.886 18.4335 122.265 18.639 123.663 18.7843C126.1 19.0376 128.544 19.0563 130.985 18.8902C133.349 18.7304 135.694 18.3899 138.005 17.7693C139.553 17.352 141.029 16.7251 142.468 15.9716C142.848 15.7723 143.189 15.4775 143.55 15.2305C143.639 15.1703 143.733 15.106 143.833 15.0852C144.086 15.0354 144.199 15.1848 144.135 15.4775C144.114 15.5751 144.072 15.6685 144.032 15.7619C143.836 16.2228 144.016 16.6442 144.46 16.7749C145.279 17.0178 146.082 16.9099 146.86 16.5923C147.269 16.4241 147.518 15.9986 147.739 15.5917C147.929 15.243 148.07 14.861 148.241 14.4957C148.319 14.3296 148.397 14.1552 148.505 14.0182C148.573 13.9331 148.719 13.8459 148.795 13.875C148.881 13.9082 148.964 14.066 148.982 14.1822C149.006 14.3275 148.971 14.4894 148.95 14.641C148.801 15.7578 148.872 15.6789 149.671 16.1812C149.749 16.2311 149.836 16.2664 149.923 16.2975C150.465 16.4947 150.818 16.3722 151.116 15.82C151.288 15.5004 151.391 15.135 151.527 14.7904C151.647 14.4936 151.766 14.1967 151.891 13.902C151.951 13.7587 152.04 13.5906 152.192 13.684C152.288 13.7421 152.352 13.9124 152.386 14.0473C152.413 14.1552 152.375 14.2839 152.366 14.4043C152.339 14.8195 152.48 15.1558 152.778 15.3779C153.267 15.7412 153.751 16.1522 154.344 16.2518C154.743 16.3182 155.154 16.2975 155.558 16.2809C155.638 16.2767 155.774 16.121 155.777 16.0276C155.794 15.7225 155.817 15.3945 155.738 15.1122C155.301 13.5657 154.677 12.1126 153.974 10.7031C153.842 10.4374 153.637 10.2527 153.381 10.1738C152.981 10.0492 152.799 9.71709 152.818 9.29154C152.85 8.51933 152.923 7.74919 153.013 6.98113C153.033 6.80469 153.191 6.649 153.329 6.41028L153.334 6.4082ZM113.523 16.4262C114.212 17.0676 115.334 17.5243 115.847 17.3582C115.611 16.5217 115.124 15.9467 114.458 15.5585C114.357 15.4983 114.197 15.517 114.078 15.5543C113.708 15.6664 113.587 16.0089 113.523 16.4283V16.4262Z" fill="white"/>
<path d="M36.4598 17.1671C36.2531 17.354 36.0701 17.5221 35.8834 17.684C35.8 17.7567 35.7148 17.8314 35.6224 17.8833C34.6073 18.4604 33.5397 18.8714 32.4341 19.1558C31.6257 19.3634 30.8263 19.6187 30.0125 19.7889C29.1388 19.9716 28.2543 20.0899 27.3716 20.2186C26.3856 20.3598 25.3995 20.5279 24.4081 20.5964C23.2951 20.6732 22.1768 20.6608 21.0621 20.6753C20.5799 20.6815 20.096 20.6649 19.6138 20.6525C17.7723 20.6089 15.9434 20.3909 14.1309 20.0214C13.2717 19.8471 12.427 19.5876 11.6404 19.1392C11.519 19.0707 11.4066 18.9835 11.2851 18.9192C11.1419 18.8444 10.9915 18.7863 10.8483 18.7219C10.7794 18.8195 10.7396 18.8693 10.7051 18.9233C10.29 19.6146 9.95653 19.7723 9.24419 19.6C8.57354 19.4381 7.95365 19.1267 7.36276 18.7406C7.138 18.5932 6.92774 18.5185 6.73923 18.5891C6.30241 19.2949 5.93627 19.9924 5.47769 20.5985C4.84874 21.433 4.02765 21.9623 3.09599 22.255C2.26403 22.5166 1.41212 22.6307 0.554784 22.7117C0.349964 22.7304 0.121582 22.7823 0.00195312 22.4107C0.21946 22.282 0.43153 22.118 0.66535 22.0225C1.70395 21.597 2.70629 21.0801 3.63976 20.4055C4.35572 19.8886 4.96111 19.2118 5.55563 18.5227C5.93083 18.0888 6.09578 17.601 6.1429 17.0115C6.22266 15.9881 6.75192 15.2387 7.38088 14.5744C7.57301 14.371 7.81227 14.2195 8.04247 14.0658C8.68592 13.632 9.27138 13.6839 9.8224 14.2527C10.1106 14.5516 10.3752 14.8858 10.6235 15.2283C11.2525 16.1002 11.9123 16.9388 12.8602 17.3477C13.52 17.6321 14.1997 17.8875 14.8921 18.0307C15.8691 18.23 16.8606 18.3338 17.8502 18.4417C20.0162 18.6784 22.1895 18.6638 24.3591 18.558C26.9964 18.4293 29.6246 18.1137 32.1948 17.4038C33.3585 17.082 34.4877 16.5735 35.6133 16.096C35.9541 15.9507 36.2404 15.631 36.5468 15.384C36.632 15.3155 36.69 15.1909 36.7824 15.1453C36.8966 15.0892 37.0488 15.0415 37.154 15.0851C37.2247 15.1162 37.25 15.3093 37.2772 15.4359C37.2917 15.4982 37.2718 15.5729 37.2645 15.6414C37.2047 16.1998 37.2519 16.341 37.6742 16.5942C38.4173 17.0405 39.2257 17.1256 40.0015 16.8433C41.234 16.3949 42.4358 15.8324 43.6502 15.3155C43.7064 15.2927 43.7571 15.2532 43.9547 15.1328C43.826 15.083 43.7553 15.0602 43.6883 15.027C42.811 14.5827 41.9373 14.1323 40.9966 13.8728C40.3332 13.688 39.6807 13.7711 39.0227 13.8562C38.9575 13.8645 38.9031 13.9537 38.8378 13.9932C38.6493 14.1053 38.4572 14.1945 38.1871 14.097C38.198 13.8998 38.1545 13.6694 38.2288 13.5116C38.4536 13.0342 38.6548 12.4944 38.9973 12.1478C39.3907 11.7492 39.8855 11.4275 40.4637 11.4337C41.1652 11.442 41.8394 11.6164 42.4829 11.9277C43.2949 12.3221 44.0834 12.7809 44.9081 13.1317C45.5824 13.4182 46.2911 13.5988 46.9907 13.8022C48.0384 14.1053 49.1132 14.0617 50.1827 14.0783C50.2878 14.0783 50.3929 14.0991 50.498 14.1136C50.7065 14.1426 50.7935 14.288 50.7427 14.5101C50.6521 14.9086 50.5597 15.3113 50.4364 15.6975C50.3458 15.9777 50.15 16.1334 49.8691 16.096C49.8093 16.0877 49.7476 16.0919 49.6896 16.0753C48.6547 15.7805 47.5925 15.8428 46.5412 15.8033C45.3739 15.7597 44.281 16.1105 43.2587 16.7582C42.8418 17.0218 42.4013 17.2336 41.9844 17.4951C41.4606 17.8231 40.9604 18.2051 40.4275 18.5144C40.0831 18.7136 39.7061 18.8548 39.3309 18.969C38.865 19.1101 38.4264 18.9482 38.0458 18.6431C37.6325 18.3109 37.1685 18.0411 36.8839 17.5221C36.8096 17.3872 36.6501 17.3145 36.467 17.1609L36.4598 17.1671ZM9.59402 17.3581C9.56501 17.1775 9.56139 17.0384 9.5197 16.916C9.31126 16.3161 8.91068 15.8926 8.45392 15.5563C8.29441 15.438 8.02071 15.384 7.85033 15.4587C7.64733 15.5459 7.46426 15.7743 7.341 15.9922C7.24313 16.1666 7.44251 16.4614 7.67089 16.6399C8.15303 17.0156 8.73305 17.1069 9.25688 17.356C9.33119 17.3913 9.42907 17.3602 9.5922 17.3602L9.59402 17.3581Z" fill="white"/>
<path d="M100.654 9.657C100.914 10.2631 100.993 10.8963 101.117 11.5128C101.387 12.8538 101.657 14.1969 101.909 15.542C102.034 16.2125 102.291 16.8394 102.67 17.3231C103.163 17.9541 103.812 18.4025 104.613 18.3651C104.959 18.3485 105.075 18.1679 104.992 17.8503C104.765 16.9951 104.537 16.1419 104.325 15.2825C104.017 14.0266 103.71 12.7687 103.428 11.5045C103.284 10.8631 103.326 10.2029 103.409 9.55113C103.457 9.18164 103.533 8.81836 103.602 8.40942C103.919 8.53813 103.986 8.7893 104.044 9.05501C104.316 10.3067 104.586 11.5585 104.867 12.8081C105.091 13.8087 105.325 14.8051 105.563 15.8015C105.893 17.1798 105.793 18.5271 105.374 19.8577C105.334 19.9864 105.269 20.1047 105.22 20.2313C105.046 20.6693 104.727 20.7876 104.334 20.798C103.703 20.8146 103.163 20.5282 102.648 20.1711C102.24 19.8888 101.842 19.5857 101.626 19.0564C101.562 18.9007 101.434 18.7782 101.289 18.5748C101.185 18.7886 101.118 18.9152 101.062 19.0481C100.729 19.8328 100.328 20.5614 99.6429 21.0015C99.4 21.1571 99.1136 21.2443 98.8363 21.2983C97.9554 21.4685 97.1778 21.2007 96.596 20.4181C96.3295 20.059 96.1737 19.594 95.9417 19.127C95.822 19.2494 95.6843 19.3719 95.5628 19.5152C95.01 20.1753 94.3448 20.4991 93.5382 20.4534C93.1159 20.4306 92.6936 20.4389 92.2712 20.4431C91.9577 20.4472 91.6821 20.3434 91.4266 20.1358C91.0604 19.8369 90.9336 19.5587 91.0985 19.0792C91.5843 17.6656 92.206 16.3578 93.4168 15.5607C94.0693 15.131 94.7055 14.6639 95.3653 14.2508C95.6027 14.1014 95.7078 13.9083 95.7695 13.6281C95.8728 13.1444 96.0015 12.667 96.1175 12.1854C96.1682 11.9716 96.2661 11.8117 96.4909 11.7702C96.6486 11.93 96.6631 12.1542 96.6594 12.3763C96.6504 12.9617 96.6196 13.5471 96.6214 14.1325C96.6232 15.0438 96.5815 15.9655 96.6757 16.8643C96.8298 18.3423 98.0587 19.6106 99.6937 18.7243C100.114 18.4959 100.42 18.114 100.705 17.7092C100.895 17.4372 100.906 17.103 100.861 16.7709C100.727 15.8181 100.589 14.8674 100.453 13.9166C100.401 13.543 100.353 13.1672 100.294 12.7957C100.241 12.4635 100.121 12.1314 100.129 11.8034C100.143 11.2035 100.239 10.6077 100.286 10.0099C100.306 9.7691 100.428 9.69022 100.656 9.65078L100.654 9.657ZM92.4779 17.5452C92.5286 18.033 92.5431 18.1015 92.9129 18.1285C93.4675 18.1679 94.0276 18.1762 94.5804 18.1285C94.9031 18.1015 95.2203 17.9458 95.5356 17.8337C95.7513 17.7569 95.8365 17.5659 95.8311 17.3148C95.8202 16.7813 95.813 16.2478 95.7967 15.7143C95.793 15.6022 95.7532 15.4943 95.7097 15.2908C94.7309 16.3225 93.5962 16.9287 92.4779 17.5473V17.5452Z" fill="white"/>
<path d="M85.1497 2.31666C85.195 2.40592 85.2476 2.49103 85.2838 2.58652C85.447 3.00584 85.6862 3.34212 86.0306 3.59122C86.1212 3.65765 86.1702 3.85278 86.1811 3.99394C86.2137 4.47761 86.0723 4.91768 85.8167 5.29341C85.6536 5.53421 85.6228 5.76462 85.6645 6.05939C85.7714 6.83991 85.8294 7.62873 85.9327 8.40924C86.0832 9.53227 86.2409 10.6532 86.4239 11.7679C86.7013 13.4681 86.8716 15.1765 86.7828 16.9056C86.7593 17.3478 86.6487 17.7858 86.5708 18.2238C86.404 19.1559 85.8312 19.6146 85.079 19.818C84.7473 19.9073 84.3921 19.8886 84.0477 19.9156C83.8719 19.9301 83.6942 19.9343 83.4949 19.9447C83.4223 20.4346 83.3788 20.8975 83.2828 21.3417C82.9819 22.7387 82.42 23.9801 81.5282 25.0118C81.2636 25.319 80.9845 25.6096 80.6981 25.8878C80.1162 26.4524 79.4456 26.714 78.6861 26.5313C77.4626 26.2386 76.2428 25.9272 75.0248 25.6076C74.7366 25.5307 74.742 25.5017 74.6641 25.1571C74.9106 25.0035 75.1734 25.0367 75.4416 25.0741C78.0209 25.4332 80.167 24.5302 81.791 22.1741C82.2297 21.5368 82.5451 20.8103 82.7481 20.0236C82.8169 19.7537 82.7789 19.5544 82.6013 19.378C82.5324 19.3095 82.4671 19.2389 82.4019 19.1683C81.9632 18.6867 81.7929 18.1096 81.9415 17.4288C82.0067 17.1278 82.0756 16.8247 82.1826 16.5424C82.2351 16.4054 82.3729 16.2268 82.478 16.2227C82.5849 16.2165 82.7535 16.3763 82.8006 16.5071C82.9855 17.0177 83.319 17.3582 83.7377 17.5658C84.4591 17.9228 85.1787 17.8252 85.8747 17.4454C86.0941 17.327 86.0922 17.0759 86.0796 16.86C86.0415 16.2767 86.0016 15.6913 85.92 15.1142C85.6536 13.2273 85.3455 11.3486 85.0972 9.45961C84.9268 8.16637 84.8325 6.86274 84.7002 5.56327C84.6785 5.35984 84.6476 5.15225 84.5933 4.95712C84.3576 4.12471 84.5606 3.36081 84.8488 2.6052C84.8905 2.49518 84.9449 2.39347 84.9938 2.2876C85.0464 2.2959 85.0971 2.3042 85.1497 2.31458V2.31666Z" fill="white"/>
<path d="M54.5537 1.95106C54.6171 2.56758 54.9796 2.93293 55.353 3.28789C55.5542 3.47887 55.614 3.70306 55.5035 3.975C55.3512 4.3445 55.3149 4.76589 55.0702 5.1001C54.9706 5.23711 54.947 5.49659 54.9687 5.68756C55.1083 6.89985 55.2642 8.10799 55.4273 9.31613C55.7427 11.6452 56.2085 13.9515 56.1197 16.3345C56.0962 16.9614 56.0237 17.5634 55.8333 18.153C55.6213 18.8089 55.1917 19.1992 54.6407 19.3902C54.2582 19.523 53.8432 19.5459 53.4426 19.5936C53.2668 19.6144 53.0855 19.5791 52.8571 19.5666C52.8064 19.8344 52.7429 20.0959 52.7103 20.3617C52.5381 21.7442 51.9961 22.9378 51.3092 24.0712C50.7872 24.9347 50.0875 25.5326 49.2973 26.0225C48.8786 26.2819 48.429 26.311 47.9777 26.201C46.8285 25.9249 45.6794 25.6364 44.5338 25.3395C44.2783 25.2731 44.001 25.1942 43.9629 24.7811C44.1695 24.6254 44.3798 24.7064 44.581 24.7354C45.7338 24.8911 46.863 24.7915 47.9795 24.4158C48.7354 24.1604 49.3661 23.6643 49.9842 23.1454C50.789 22.4686 51.3509 21.5594 51.7786 20.536C51.8439 20.3803 51.8946 20.2184 51.9508 20.0586C52.1357 19.5313 52.1285 19.0643 51.679 18.6906C51.2385 18.3232 51.1442 17.7897 51.2439 17.2147C51.3074 16.8452 51.4125 16.484 51.5213 16.1269C51.5847 15.9194 51.6155 15.9194 51.9653 15.826C51.9925 15.8758 52.0324 15.9277 52.0505 15.9879C52.3315 16.8826 52.9187 17.3206 53.7126 17.4347C54.1658 17.4991 54.5899 17.4451 55.0104 17.1586C55.3204 16.949 55.4527 16.7165 55.411 16.3408C55.3113 15.4544 55.2098 14.5659 55.0884 13.6837C54.8364 11.8653 54.5537 10.051 54.3162 8.23046C54.1875 7.24444 54.1295 6.24596 54.0317 5.25371C54.0081 5.01499 53.9664 4.77627 53.9084 4.54585C53.7126 3.75288 53.8939 3.00973 54.144 2.28111C54.1912 2.14203 54.3362 2.04654 54.4359 1.93237L54.5519 1.95313L54.5537 1.95106Z" fill="white"/>
<path d="M57.8611 3.45825C58.1348 3.67206 58.1693 3.94815 58.1838 4.21801C58.298 6.38518 58.5916 8.52745 58.8889 10.6676C59.168 12.6729 59.4816 14.674 59.5341 16.7104C59.5522 17.4473 59.5142 18.1884 59.4761 18.9274C59.4671 19.1225 59.3855 19.328 59.2949 19.4982C59.1952 19.683 59.0248 19.6498 58.9541 19.4443C58.9124 19.3197 58.8907 19.1744 58.8979 19.0416C58.9686 17.8438 58.7692 16.673 58.5988 15.5023C58.3251 13.6029 58.0315 11.7056 57.7179 9.81239C57.5041 8.52537 57.3427 7.2342 57.2775 5.92642C57.2358 5.10439 57.524 4.382 57.7651 3.643C57.785 3.58073 57.8249 3.52468 57.8593 3.45825H57.8611Z" fill="white"/>
<path d="M107.381 3.51245C107.571 3.72834 107.62 3.96083 107.644 4.22862C107.778 5.75228 107.898 7.27802 108.079 8.79546C108.28 10.4831 108.568 12.1562 108.766 13.8439C108.911 15.0894 108.996 16.3453 109.056 17.5991C109.079 18.1077 108.983 18.6266 108.909 19.1331C108.882 19.3137 108.76 19.4756 108.664 19.6853C108.387 19.4424 108.383 19.1622 108.369 18.8944C108.34 18.3962 108.356 17.8918 108.296 17.3998C108.153 16.2249 107.986 15.052 107.809 13.8833C107.557 12.2227 107.265 10.5682 107.031 8.9034C106.897 7.95474 106.834 6.99155 106.759 6.03252C106.698 5.23747 106.961 4.51093 107.185 3.78231C107.216 3.68059 107.312 3.60586 107.385 3.51245H107.381Z" fill="white"/>
<path d="M89.8178 19.6726C89.5731 19.5585 89.6058 19.3633 89.604 19.2035C89.5931 17.3705 89.2541 15.5874 88.9823 13.7939C88.6487 11.5914 88.259 9.40141 88.0252 7.18026C87.9763 6.71942 87.9455 6.25444 87.9328 5.79153C87.9128 5.08782 88.1593 4.44638 88.346 3.79665C88.3769 3.69078 88.5055 3.55792 88.5962 3.5517C88.7593 3.54132 88.7974 3.72192 88.8101 3.88591C88.8155 3.95441 88.8191 4.02291 88.8209 4.09141C88.9315 6.39559 89.2505 8.67071 89.5731 10.9458C89.8088 12.6086 89.952 14.2879 90.1477 15.9569C90.2529 16.8495 90.3 17.738 90.1568 18.6285C90.1242 18.8319 90.1079 19.0416 90.048 19.2326C89.9973 19.3945 89.8958 19.5336 89.8197 19.6747L89.8178 19.6726Z" fill="white"/>
<path d="M52.1588 2.22339C52.3672 2.54307 52.3291 2.83991 52.1008 3.06618C51.8651 3.29867 51.6023 3.51248 51.3214 3.66194C50.1921 4.26394 49.0502 4.83272 47.9156 5.42018C46.6703 6.06576 45.4287 6.71758 44.1817 7.36109C44.053 7.42751 43.9044 7.43789 43.7322 7.48148C43.676 7.0933 43.7775 6.81307 43.9769 6.60133C44.1617 6.4062 44.3774 6.22975 44.604 6.1052C45.7459 5.4866 46.8933 4.88461 48.0442 4.28677C49.3294 3.61835 50.6181 2.96031 51.905 2.30019C51.9829 2.26075 52.0736 2.2483 52.1569 2.22339H52.1588Z" fill="white"/>
<path d="M102.074 5.13989C102.317 5.46165 102.346 5.73566 102.326 6.00967C102.293 6.4539 102.277 6.91266 102.17 7.33613C102.081 7.68695 101.913 8.03776 101.706 8.318C101.474 8.63145 101.111 8.60447 100.78 8.52974C100.589 8.48614 100.405 8.41557 100.221 8.35952C100.093 8.51728 99.9695 8.64391 99.8716 8.79337C99.5671 9.2542 99.1303 9.27496 98.6899 9.25213C98.3781 9.2376 98.195 9.03001 98.128 8.68542C97.9884 7.97134 98.079 7.28216 98.3328 6.61997C98.4125 6.41031 98.5412 6.23801 98.8204 6.30029C98.8258 6.43106 98.8403 6.56392 98.8331 6.69262C98.8276 6.79434 98.7932 6.89398 98.7769 6.99362C98.6862 7.54579 98.737 7.76583 98.969 7.83641C99.3496 7.95265 99.7593 7.74715 99.8988 7.34236C100.018 6.99777 100.105 6.63865 100.207 6.28368C100.231 6.20272 100.229 6.08855 100.278 6.04288C100.386 5.94324 100.515 5.81869 100.642 5.81039C100.805 5.80001 100.838 5.98891 100.834 6.15498C100.829 6.32727 100.82 6.49749 100.809 6.66979C100.783 7.03929 100.832 7.15553 101.033 7.1929C101.266 7.23441 101.528 7.06212 101.594 6.80679C101.686 6.44352 101.76 6.07402 101.856 5.71283C101.902 5.54261 101.981 5.38277 102.079 5.13574L102.074 5.13989Z" fill="white"/>
<path d="M147.153 8.30546C146.952 7.63082 147.349 7.3485 147.582 7.01637C147.847 6.63857 148.242 6.46004 148.666 6.48495C149.312 6.52232 149.957 6.59082 150.598 6.67801C150.957 6.72783 151.126 6.99976 150.988 7.37134C150.568 8.50682 150.096 9.61117 148.927 9.98482C148.594 10.0907 148.264 10.209 147.93 10.3107C147.831 10.3419 147.718 10.3709 147.62 10.3481C147.53 10.3273 147.403 10.2568 147.379 10.1758C147.358 10.1011 147.432 9.95575 147.501 9.88933C147.59 9.80422 147.709 9.75232 147.822 9.70873C148.431 9.47831 148.904 8.99049 149.433 8.61061C149.495 8.56702 149.544 8.49437 149.585 8.42379C149.747 8.15185 149.681 7.96295 149.388 7.93389C148.924 7.88615 148.456 7.85916 147.99 7.85293C147.872 7.85293 147.753 7.96295 147.635 8.0273C147.481 8.11241 147.33 8.20167 147.151 8.30339L147.153 8.30546Z" fill="white"/>
<path d="M49.5371 7.00591C49.5534 7.47297 49.5679 7.92343 49.5842 8.40295C49.7365 8.41955 49.8525 8.43201 49.9685 8.44446C50.1679 8.4673 50.2785 8.3552 50.3274 8.14347C50.4126 7.75944 50.496 7.37541 50.5884 6.99553C50.6392 6.78795 50.6591 6.54922 50.8984 6.45166C51.1032 6.66132 51.1358 6.93533 51.1032 7.20519C51.0415 7.73245 50.9817 8.26594 50.8657 8.77867C50.6754 9.62562 50.3491 9.84565 49.6078 9.69827C49.4302 9.66298 49.2562 9.61524 49.0659 9.56957C48.9045 9.74186 48.7432 9.92038 48.5747 10.0885C48.3155 10.3439 48.0146 10.4954 47.6702 10.4995C47.2225 10.5058 46.9361 10.2152 46.8636 9.71072C46.7675 9.04023 46.8545 8.40918 47.1464 7.81549C47.2497 7.60583 47.3693 7.44806 47.6521 7.56223C47.6339 7.68886 47.6176 7.81549 47.5977 7.94004C47.5669 8.14139 47.5089 8.34275 47.5052 8.54618C47.5016 8.76622 47.5179 9.00286 47.7554 9.09628C48.0019 9.19177 48.2611 9.20837 48.4151 8.95097C48.5982 8.64582 48.7342 8.29708 48.8665 7.95664C48.9517 7.73868 48.997 7.50203 49.0586 7.27162C49.1166 7.05573 49.2453 6.9727 49.5353 7.00383L49.5371 7.00591Z" fill="white"/>
<path d="M70.5604 6.0636C70.7743 5.71278 70.9628 5.39103 71.164 5.08173C71.3942 4.72468 71.7313 4.5337 72.1011 4.54201C72.8062 4.55861 73.5149 4.60843 74.2163 4.70392C74.6659 4.76412 74.7402 4.9634 74.5861 5.4616C74.3632 6.18607 74.0115 6.82958 73.5475 7.37968C73.3844 7.57273 73.1705 7.7388 72.953 7.83429C72.518 8.02526 72.0685 8.17472 71.6171 8.31173C71.4051 8.37608 71.1694 8.43005 70.9682 8.19341C71.0734 7.94015 71.2709 7.81768 71.483 7.73257C72.1047 7.47932 72.6013 6.9998 73.1034 6.54104C73.214 6.43932 73.2394 6.21721 73.3354 5.96811C72.8569 5.93489 72.4455 5.89338 72.0322 5.883C71.7186 5.8747 71.3833 5.76052 71.1513 6.17362C71.0589 6.33761 70.8903 6.28156 70.5586 6.06152L70.5604 6.0636Z" fill="white"/>
<path d="M78.9718 6.72371C79.1422 6.77769 79.2383 6.85657 79.1748 7.06208C79.1204 7.2406 79.0516 7.41912 79.0353 7.60179C79.0135 7.82391 78.9066 8.08962 79.1712 8.23908C79.4576 8.40099 79.8273 8.35947 79.9923 8.08131C80.1754 7.77409 80.3258 7.43365 80.4509 7.08906C80.5651 6.77769 80.5995 6.42687 80.8297 6.15701C81.0291 6.22344 81.0998 6.37705 81.0961 6.58463C81.0925 6.77353 81.0708 6.96244 81.0653 7.15134C81.0544 7.60802 81.1813 7.7388 81.5837 7.68898C81.6562 7.68068 81.7251 7.64331 81.8339 7.60595C81.9263 7.14926 82.0205 6.68012 82.1166 6.21513C82.1601 6.00548 82.1583 5.7626 82.3976 5.66919C82.5933 5.80827 82.6423 6.02623 82.6368 6.24835C82.6205 7.0081 82.548 7.75541 82.2544 8.45911C82.1275 8.76011 81.9335 8.93241 81.6653 8.93448C81.2937 8.93448 80.9203 8.87843 80.5125 8.84522C80.4273 8.94901 80.3004 9.09225 80.1844 9.24793C79.8654 9.67556 79.4467 9.73991 78.9936 9.69009C78.6673 9.65272 78.506 9.36418 78.4498 9.07771C78.3066 8.33872 78.332 7.60179 78.7525 6.95621C78.8123 6.8628 78.9048 6.79637 78.9736 6.72579L78.9718 6.72371Z" fill="white"/>
<path d="M39.0316 21.5638C39.1204 21.3251 39.1856 21.1154 39.2744 20.9203C39.4503 20.5383 39.6152 20.4885 39.9451 20.7127C40.2134 20.8933 40.478 21.0801 40.7354 21.2835C40.9801 21.4766 41.0218 21.6261 40.9094 21.9457C40.7807 22.3111 40.6375 22.6702 40.4834 23.0231C40.3964 23.2224 40.072 23.2909 39.936 23.102C39.7312 22.8197 39.3578 22.8425 39.1947 22.4813C39.1258 22.3277 38.8449 22.4294 38.747 22.6204C38.6256 22.857 38.5186 23.1041 38.3972 23.3407C38.2939 23.54 38.1434 23.5794 37.9767 23.4486C37.654 23.1954 37.335 22.9359 37.0196 22.6723C36.8873 22.5623 36.8202 22.4128 36.8927 22.2218C37.0559 21.8004 37.2027 21.3645 37.3966 20.9618C37.5217 20.7023 37.761 20.6816 37.915 20.914C38.0872 21.1756 38.4262 21.1548 38.5621 21.4891C38.5984 21.5762 38.863 21.5409 39.0298 21.5638H39.0316Z" fill="white"/>
<path d="M93.4537 10.5474C92.9625 11.4545 92.2556 12.0379 91.4037 12.4053C91.2823 12.4572 91.1337 12.4281 90.918 12.4406C91.1246 12.0794 91.3512 11.9237 91.5705 11.7514C91.9674 11.4421 92.3571 11.1245 92.7414 10.7965C92.919 10.645 92.9734 10.3481 92.8139 10.1551C92.388 9.64026 92.6018 9.12961 92.7994 8.63556C92.9607 8.23284 93.2 7.87995 93.2544 7.41496C93.2888 7.11812 93.5226 7.03924 93.7782 7.20738C94.3201 7.56027 94.6718 8.11452 94.9527 8.73312C95.0705 8.9926 95.1757 9.25208 95.1521 9.56346C95.1122 10.1198 94.8113 10.7238 94.1171 10.5557C93.9159 10.508 93.6984 10.5474 93.4519 10.5474H93.4537ZM94.244 9.01543C93.9431 9.17943 93.9884 9.42022 94.0736 9.64441C94.1443 9.82916 94.3328 9.81463 94.6718 9.62573C94.6428 9.32473 94.4579 9.16905 94.244 9.01543ZM93.4592 8.75388C93.4193 8.73935 93.3812 8.72482 93.3414 8.71236C93.2507 8.85767 93.142 8.99468 93.0767 9.15452C93.0514 9.21887 93.0967 9.3704 93.1529 9.41399C93.2272 9.47212 93.3504 9.49495 93.4338 9.46797C93.49 9.44928 93.5552 9.31228 93.5516 9.2334C93.5444 9.07356 93.4918 8.91579 93.4592 8.75595V8.75388Z" fill="white"/>
<path d="M62.4727 6.55126C62.5669 5.97833 62.8787 5.66073 63.2666 5.44069C63.9517 5.04835 64.6477 4.67678 65.3437 4.3052C66.473 3.70321 67.6076 3.11367 68.7332 2.5013C68.958 2.37883 69.1411 2.12142 69.4256 2.37675C69.5036 2.73172 69.3477 2.9995 69.1266 3.22162C69.0051 3.34409 68.8583 3.44581 68.7097 3.52677C67.5533 4.14952 66.3932 4.76396 65.235 5.38049C64.5716 5.7313 63.9064 6.07382 63.2448 6.43086C63.0509 6.53465 62.9113 6.80451 62.6467 6.66336C62.5941 6.63429 62.5433 6.59693 62.4745 6.55126H62.4727Z" fill="white"/>
<path d="M96.3811 6.17387C96.285 5.72756 96.401 5.41619 96.6639 5.21068C96.9974 4.94912 97.349 4.7104 97.7133 4.51112C99.0546 3.77212 100.407 3.05388 101.754 2.32734C102.063 2.1592 102.373 1.9869 102.682 1.81668C102.928 1.67968 103.082 1.69836 103.207 1.88519C103.361 2.11145 103.224 2.29413 103.102 2.42906C102.923 2.63249 102.725 2.838 102.5 2.96047C100.949 3.80119 99.3899 4.62114 97.833 5.4494C97.5466 5.60301 97.2674 5.77323 96.9792 5.92269C96.7944 6.01818 96.5968 6.08461 96.3811 6.17387Z" fill="white"/>
<path d="M65.1893 28.1902C65.3524 27.5882 65.7095 27.1876 66.208 26.9219C67.6943 26.133 69.1769 25.3359 70.6596 24.5429C71.0928 24.3104 71.526 24.078 71.9683 23.8413C72.193 23.9762 72.2003 24.1817 72.1242 24.4101C72.0082 24.7526 71.7762 24.9519 71.4916 25.1034C70.5364 25.6078 69.5866 26.1227 68.635 26.6354C67.6707 27.1564 66.71 27.6878 65.7421 28.2006C65.5917 28.2794 65.4123 28.2878 65.2455 28.3293C65.2256 28.2836 65.2074 28.2359 65.1875 28.1902H65.1893Z" fill="white"/>
<path d="M83.2482 2.22729C83.404 2.68813 83.3714 2.97252 83.1032 3.19256C82.8476 3.40014 82.5648 3.57036 82.2803 3.72605C80.7342 4.56676 79.1844 5.3971 77.6365 6.23366C77.3918 6.36651 77.158 6.53051 76.9042 6.63637C76.7991 6.67997 76.607 6.66128 76.5471 6.58033C76.4837 6.49729 76.4873 6.27725 76.5399 6.16516C76.6233 5.99079 76.7483 5.81019 76.8951 5.7147C77.486 5.33898 78.0842 4.97778 78.6932 4.64149C79.8822 3.98553 81.0803 3.35032 82.2766 2.71097C82.5866 2.5449 82.9056 2.39544 83.2445 2.22729H83.2482Z" fill="white"/>
<path d="M67.7593 13.8999C67.714 13.711 67.6505 13.5242 67.6306 13.3311C67.6088 13.1277 67.6106 12.916 67.6378 12.7146C67.743 11.9715 67.5418 11.2761 67.346 10.5993C67.2264 10.1883 66.9853 9.80636 66.7406 9.468C66.4923 9.12341 66.3835 8.76844 66.4307 8.33459C66.4488 8.16437 66.447 7.99208 66.4542 7.81978C66.4615 7.63919 66.4977 7.47727 66.6681 7.40669C66.8566 7.32989 66.9853 7.43991 67.0977 7.59352C67.1176 7.6205 67.1376 7.64541 67.1557 7.6724C67.7285 8.59407 68.1508 9.58632 68.2432 10.7301C68.2758 11.1224 68.3465 11.5189 68.3284 11.9092C68.3049 12.4198 68.2269 12.9284 68.1345 13.4308C68.1018 13.6072 67.9587 13.7567 67.8662 13.9186L67.7611 13.8978L67.7593 13.8999Z" fill="white"/>
<path d="M86.7811 3.03453C86.8155 2.856 86.8282 2.69201 86.8808 2.54878C87.053 2.06719 87.3901 1.74335 87.7563 1.47142C87.8777 1.38216 88.0789 1.35102 88.2185 1.39461C88.6209 1.52332 88.8692 1.32611 89.103 0.98775C89.2697 0.746953 89.4728 0.539369 89.6758 0.335937C89.7755 0.236297 89.8987 0.136657 90.0238 0.109671C90.2068 0.0681539 90.4497 0.00587882 90.5802 0.103443C90.7778 0.252903 90.8666 0.560127 90.7905 0.842441C90.7216 1.10192 90.6292 1.37386 90.4824 1.57936C90.109 2.1004 89.6758 2.56539 89.0867 2.73561C88.851 2.80411 88.5502 2.83732 88.3417 2.7273C87.8215 2.45537 87.3901 2.4782 87.0059 2.98471C86.9877 3.00962 86.9551 3.01999 86.9279 3.03245C86.9152 3.03868 86.8989 3.03245 86.7793 3.03245L86.7811 3.03453ZM89.3187 1.60427C89.7827 1.64787 89.9621 1.50048 90.0093 1.03965C89.6069 1.02304 89.4365 1.1642 89.3187 1.60427Z" fill="white"/>
<path d="M107.496 1.52562C107.641 1.33672 107.788 1.12084 107.956 0.929859C108.179 0.676606 108.402 0.417127 108.652 0.203316C108.874 0.0123385 109.149 -0.0810742 109.414 0.0870686C109.629 0.224074 109.673 0.655848 109.539 1.0295C109.18 2.03005 108.527 2.62582 107.599 2.80849C107.451 2.83755 107.266 2.80019 107.132 2.71923C106.7 2.45352 106.307 2.41616 105.944 2.85624C105.905 2.90398 105.848 2.93927 105.796 2.96625C105.758 2.98494 105.709 2.97871 105.605 2.99116C105.631 2.84586 105.62 2.70055 105.678 2.60714C105.848 2.3269 106.024 2.04458 106.234 1.80586C106.715 1.26199 106.845 1.24331 107.494 1.52562H107.496ZM108.047 1.53393C108.58 1.67716 108.814 1.47788 108.792 0.944389C108.417 0.902873 108.257 1.20594 108.047 1.53393Z" fill="white"/>
<path d="M56.252 2.73383C56.3281 2.6072 56.4042 2.50549 56.4568 2.38716C56.6779 1.88481 57.0604 1.59004 57.4827 1.35547C57.5733 1.30565 57.7129 1.3534 57.8253 1.38038C58.1968 1.47172 58.2512 1.42813 58.4832 1.06278C58.7605 0.624777 59.1212 0.280188 59.5599 0.0746806C59.9713 -0.118372 60.3556 0.224141 60.2505 0.722342C60.1725 1.09599 60.0166 1.47172 59.8191 1.78102C59.5001 2.27714 59.0215 2.56776 58.5285 2.7795C58.34 2.86045 58.0899 2.78365 57.8724 2.74421C57.7437 2.72137 57.6222 2.62796 57.499 2.56776C57.2072 2.42453 56.9516 2.43906 56.7468 2.76497C56.5963 3.00784 56.4278 2.985 56.2538 2.73175L56.252 2.73383ZM58.7968 1.58797C59.2445 1.62948 59.4348 1.46757 59.5164 0.971442C59.0959 0.909167 58.8802 1.09392 58.7968 1.58797Z" fill="white"/>
<path d="M112.434 24.5056C112.481 24.0552 112.606 23.6981 112.979 23.4968C114.15 22.8636 115.318 22.2243 116.485 21.5849C116.742 21.4437 116.996 21.2922 117.257 21.1594C117.478 21.0473 117.629 21.1552 117.603 21.423C117.587 21.5849 117.533 21.7697 117.438 21.8838C117.275 22.081 117.087 22.272 116.876 22.3903C116.363 22.6768 115.829 22.9072 115.31 23.1812C114.545 23.586 113.788 24.0074 113.028 24.4226C112.853 24.5181 112.686 24.6509 112.434 24.5035V24.5056Z" fill="white"/>
<path d="M6.31536 24.6382C6.25736 24.5344 6.14498 24.4223 6.15948 24.3392C6.20661 24.0569 6.26642 23.7663 6.52743 23.6127C6.82107 23.4404 7.10745 23.2474 7.40471 23.0854C8.51762 22.4793 9.63416 21.8815 10.7525 21.2857C10.9193 21.1964 11.0951 21.0075 11.2763 21.2587C11.4014 21.4331 11.3633 21.7195 11.135 21.9437C10.9084 22.1638 10.6564 22.3651 10.3882 22.5084C9.3949 23.0418 8.39074 23.5504 7.39202 24.0694C7.12014 24.2105 6.85007 24.36 6.57818 24.5053C6.51112 24.5406 6.44405 24.5738 6.31717 24.6402L6.31536 24.6382Z" fill="white"/>
<path d="M151.664 25.7404C151.437 25.7259 151.346 25.5847 151.383 25.3937C151.412 25.2339 151.481 25.0512 151.584 24.9474C151.785 24.7481 152.01 24.5613 152.249 24.4305C153.308 23.8514 154.375 23.2971 155.437 22.7283C155.642 22.6183 155.827 22.4564 156.037 22.3713C156.161 22.3215 156.344 22.3277 156.449 22.4024C156.51 22.446 156.5 22.6848 156.469 22.8197C156.4 23.1228 156.199 23.3096 155.959 23.4404C155.388 23.7538 154.818 24.0652 154.247 24.3766C153.447 24.8125 152.648 25.2505 151.849 25.6823C151.783 25.7176 151.705 25.7279 151.666 25.7404H151.664Z" fill="white"/>
<path d="M94.9075 21.5222C95.1178 21.6239 95.1432 21.7692 95.0779 21.9581C94.9601 22.3048 94.7952 22.5975 94.4798 22.7553C93.9578 23.0168 93.4376 23.2867 92.921 23.5628C92.1053 24.0008 91.2933 24.4512 90.4758 24.883C90.3363 24.9577 90.1713 24.9702 90.0046 25.0138C89.8886 24.6214 89.9846 24.3412 90.2076 24.1378C90.4178 23.9468 90.6517 23.7849 90.8909 23.6499C91.4021 23.3635 91.9259 23.104 92.4425 22.8321C93.2726 22.3941 94.101 21.9519 94.9094 21.5222H94.9075Z" fill="white"/>
<path d="M48.4646 18.4851C48.238 19.1639 47.7776 19.4628 47.2375 19.714C46.4055 20.1001 45.6044 20.5734 44.7887 21.0073C44.4643 21.1796 44.1398 21.356 43.8045 21.4972C43.6994 21.5408 43.5326 21.5221 43.4456 21.4494C43.3949 21.4079 43.4166 21.192 43.4565 21.0758C43.5707 20.7374 43.81 20.5298 44.0909 20.3762C45.057 19.8552 46.0231 19.3321 46.9874 18.8069C47.2448 18.6657 47.4985 18.5142 47.7505 18.3606C48.0876 18.1571 48.1383 18.1634 48.4664 18.4831L48.4646 18.4851Z" fill="white"/>
<path d="M154.632 20.8496C154.59 20.9908 154.574 21.0966 154.529 21.1817C154.34 21.5533 154.152 21.9228 153.949 22.284C153.827 22.4999 153.626 22.5726 153.439 22.4293C153.066 22.1429 152.707 21.8315 152.361 21.5056C152.305 21.4516 152.303 21.2399 152.348 21.1402C152.526 20.7437 152.722 20.3576 152.928 19.9819C153.064 19.737 153.304 19.6643 153.516 19.8138C153.833 20.04 154.139 20.2912 154.438 20.5486C154.525 20.6233 154.574 20.7583 154.632 20.8496Z" fill="white"/>
<path d="M63.7002 14.2568C63.5642 14.5744 63.4555 14.8568 63.325 15.1225C62.9552 15.8698 62.9534 15.8656 62.3371 15.3736C62.1776 15.2449 62.0072 15.1328 61.8423 15.0124C61.623 14.8547 61.5233 14.6284 61.6175 14.3523C61.7553 13.9538 61.9112 13.5614 62.087 13.1816C62.1867 12.9698 62.3716 12.9449 62.5528 13.0798C62.8428 13.2936 63.1401 13.4992 63.4065 13.7462C63.5352 13.8645 63.5987 14.0742 63.7002 14.2548V14.2568Z" fill="white"/>
</g>
<defs>
<clipPath id="clip0_1432_30254">
<rect width="156.522" height="30" fill="white"/>
</clipPath>
</defs>
</svg>
