<svg width="26" height="26" viewBox="0 0 26 26" fill="none" xmlns="http://www.w3.org/2000/svg">
<path d="M0 9.34291C0 10.2404 0.72696 10.9674 1.62449 10.9674C2.52202 10.9674 3.24898 10.2404 3.24898 9.34291V3.65719H5.1537C7.29803 3.65719 9.31646 4.35166 10.9897 5.6675C11.5583 6.11423 12.273 6.36197 13 6.36197C13.727 6.36197 14.4377 6.11423 15.0103 5.6675C16.6835 4.35166 18.6979 3.65719 20.8463 3.65719H22.751V20.3082H20.8463C18.4136 20.3082 15.9444 21.1083 13.7148 22.6191C12.9716 23.1227 12.7766 24.1339 13.2802 24.8771C13.5929 25.3401 14.1047 25.5919 14.6286 25.5919C14.9413 25.5919 15.258 25.5026 15.5383 25.3117C17.2277 24.1664 19.0634 23.5613 20.8463 23.5613H22.751C24.542 23.5613 26 22.1033 26 20.3123V3.65719C26 1.86619 24.542 0.408203 22.751 0.408203H20.8463C17.9669 0.408203 15.254 1.34229 13.0041 3.11298C10.7541 1.34229 8.04124 0.408203 5.16182 0.408203H3.25711C1.4661 0.408203 0.00812265 1.86619 0.00812265 3.65719V9.34291H0Z" fill="url(#paint0_linear_1432_30300)"/>
<path d="M1.62449 23.9633H8.12246C9.01999 23.9633 9.74695 23.2364 9.74695 22.3388C9.74695 21.4413 9.01999 20.7144 8.12246 20.7144H1.62449C0.72696 20.7144 0 21.4413 0 22.3388C0 23.2364 0.72696 23.9633 1.62449 23.9633Z" fill="url(#paint1_linear_1432_30300)"/>
<path d="M1.62449 17.465H8.12246C9.01999 17.465 9.74695 16.7381 9.74695 15.8406C9.74695 14.943 9.01999 14.2161 8.12246 14.2161H1.62449C0.72696 14.2161 0 14.943 0 15.8406C0 16.7381 0.72696 17.465 1.62449 17.465Z" fill="url(#paint2_linear_1432_30300)"/>
<defs>
<linearGradient id="paint0_linear_1432_30300" x1="26" y1="13.1024" x2="-2.53264e-07" y2="13.1024" gradientUnits="userSpaceOnUse">
<stop stop-color="#46B07F"/>
<stop offset="1" stop-color="#7BC363"/>
</linearGradient>
<linearGradient id="paint1_linear_1432_30300" x1="9.74695" y1="22.3521" x2="-9.49441e-08" y2="22.3521" gradientUnits="userSpaceOnUse">
<stop stop-color="#46B07F"/>
<stop offset="1" stop-color="#7BC363"/>
</linearGradient>
<linearGradient id="paint2_linear_1432_30300" x1="9.74695" y1="15.8538" x2="-9.49441e-08" y2="15.8538" gradientUnits="userSpaceOnUse">
<stop stop-color="#46B07F"/>
<stop offset="1" stop-color="#7BC363"/>
</linearGradient>
</defs>
</svg>
