<svg width="28" height="28" viewBox="0 0 28 28" fill="none" xmlns="http://www.w3.org/2000/svg">
<path d="M23.0607 22.989H18.9336C17.5708 25.0137 16.5124 26.2281 14.0722 26.2281C11.632 26.2281 10.5729 25.0137 9.21008 22.989H5.08367V18.8618C3.05891 17.4998 1.84375 16.4414 1.84375 14.0004C1.84375 11.5595 3.05891 10.5011 5.08367 9.1383V5.01189H9.21008C10.5729 2.98713 11.6312 1.77197 14.0722 1.77197" stroke="url(#paint0_linear_1432_30314)" stroke-width="3" stroke-linecap="round"/>
<path fill-rule="evenodd" clip-rule="evenodd" d="M17.5084 3.24163C17.7915 2.42964 18.6784 2.00121 19.4904 2.28425C25.9717 4.54349 29.4087 11.6588 27.1495 18.1401C26.8664 18.9521 25.9795 19.3805 25.1675 19.0975C24.3555 18.8144 23.9271 17.9275 24.2101 17.1155C25.9045 12.2545 23.3268 6.91804 18.4658 5.22362C17.6538 4.94057 17.2254 4.05363 17.5084 3.24163ZM15.2567 9.70789C15.5115 8.97709 16.3097 8.59151 17.0405 8.84625C19.9571 9.8629 21.5038 13.0648 20.4871 15.9814C20.2324 16.7122 19.4341 17.0978 18.7033 16.843C17.9725 16.5883 17.5869 15.79 17.8417 15.0592C18.35 13.6009 17.5767 12 16.1184 11.4917C15.3876 11.2369 15.002 10.4387 15.2567 9.70789Z" fill="url(#paint1_linear_1432_30314)"/>
<defs>
<linearGradient id="paint0_linear_1432_30314" x1="23.0607" y1="14.0995" x2="1.84375" y2="14.0995" gradientUnits="userSpaceOnUse">
<stop stop-color="#46B07F"/>
<stop offset="1" stop-color="#7BC363"/>
</linearGradient>
<linearGradient id="paint1_linear_1432_30314" x1="27.8438" y1="10.7599" x2="15.1782" y2="10.7599" gradientUnits="userSpaceOnUse">
<stop stop-color="#46B07F"/>
<stop offset="1" stop-color="#7BC363"/>
</linearGradient>
</defs>
</svg>
