<svg width="27" height="26" viewBox="0 0 27 26" fill="none" xmlns="http://www.w3.org/2000/svg">
<path fill-rule="evenodd" clip-rule="evenodd" d="M16.1992 4.28492C15.8402 4.01475 15.3992 3.8313 14.6138 3.8313V0.831299C15.9701 0.831299 17.0639 1.18094 18.0033 1.888C18.6575 2.38044 19.1881 3.01374 19.6644 3.67402H22.5003H24.0003V5.17402V8.00931C24.6607 8.48583 25.2939 9.01659 25.7863 9.67111C26.4931 10.6107 26.8424 11.7045 26.8424 13.0606C26.8424 14.4167 26.4931 15.5105 25.7862 16.4501C25.2939 17.1045 24.6607 17.6351 24.0003 18.1114V20.9472V22.4472H22.5003H19.6644C19.1879 23.1075 18.6572 23.7407 18.0027 24.2331C17.0633 24.9398 15.9696 25.2892 14.6138 25.2892V22.2892C15.399 22.2892 15.8401 22.1059 16.1992 21.8357C16.626 21.5146 17.036 20.9992 17.6348 20.1096L18.0806 19.4472H18.8791H21.0003V17.326V16.5272L21.6631 16.0814C22.5526 15.483 23.0679 15.0732 23.3889 14.6465C23.659 14.2876 23.8424 13.8462 23.8424 13.0606C23.8424 12.275 23.659 11.8336 23.3889 11.4745C23.0677 11.0476 22.5524 10.6377 21.6628 10.0389L21.0003 9.59307V8.79455V6.67402H18.8791H18.0806L17.6348 6.01157C17.0358 5.12169 16.626 4.6062 16.1992 4.28492Z" fill="url(#paint0_linear_1432_30335)"/>
<path fill-rule="evenodd" clip-rule="evenodd" d="M1.09615 4.30009C1.18155 4.09408 1.30672 3.90692 1.46449 3.74932C1.62237 3.59182 1.80975 3.46698 2.01591 3.38195C2.22207 3.29692 2.44297 3.25335 2.66597 3.25374C2.88898 3.25414 3.10972 3.29848 3.31558 3.38425C3.52144 3.47001 3.70837 3.59551 3.86569 3.75356L5.38447 5.27659C5.45218 5.34043 5.54172 5.37598 5.63478 5.37598C5.72783 5.37598 5.81737 5.34043 5.88508 5.27659L9.9493 1.20812C10.2677 0.889701 10.6996 0.710815 11.1499 0.710815C11.6002 0.710815 12.0321 0.889701 12.3505 1.20812C12.6689 1.52654 12.8478 1.95841 12.8478 2.40872C12.8478 2.85903 12.6689 3.2909 12.3505 3.60932L8.28204 7.67354C7.93453 8.02142 7.52186 8.2974 7.06762 8.48569C6.61338 8.67398 6.12649 8.7709 5.63478 8.7709C5.14306 8.7709 4.65617 8.67398 4.20193 8.48569C3.7477 8.2974 3.33503 8.02142 2.98752 7.67354L1.46449 6.15052C1.30672 5.99292 1.18155 5.80576 1.09615 5.59975C1.01075 5.39375 0.966797 5.17293 0.966797 4.94992C0.966797 4.72691 1.01075 4.50609 1.09615 4.30009ZM11.3748 13.1428C11.5808 13.2282 11.768 13.3534 11.9256 13.5112C12.0834 13.6688 12.2085 13.8559 12.2939 14.0619C12.3793 14.2679 12.4233 14.4888 12.4233 14.7118C12.4233 14.9348 12.3793 15.1556 12.2939 15.3616C12.2085 15.5676 12.0834 15.7548 11.9256 15.9124L9.30802 18.5299L11.9256 21.1475C12.244 21.4659 12.4229 21.8978 12.4229 22.3481C12.4229 22.7984 12.244 23.2303 11.9256 23.5487C11.6072 23.8671 11.1753 24.046 10.725 24.046C10.2747 24.046 9.8428 23.8671 9.52438 23.5487L6.90682 20.9311L4.28926 23.5487C3.97084 23.8671 3.53897 24.046 3.08866 24.046C2.63834 24.046 2.20647 23.8671 1.88805 23.5487C1.56964 23.2303 1.39075 22.7984 1.39075 22.3481C1.39075 21.8978 1.56964 21.4659 1.88805 21.1475L4.50562 18.5299L1.88805 15.9124C1.56964 15.594 1.39075 15.1621 1.39075 14.7118C1.39075 14.2615 1.56964 13.8296 1.88806 13.5112C2.20648 13.1928 2.63834 13.0139 3.08866 13.0139C3.53897 13.0139 3.97084 13.1927 4.28926 13.5112L6.90682 16.1287L9.52438 13.5112C9.68198 13.3534 9.86914 13.2282 10.0751 13.1428C10.2812 13.0574 10.502 13.0135 10.725 13.0135C10.948 13.0135 11.1688 13.0574 11.3748 13.1428Z" fill="url(#paint1_linear_1432_30335)"/>
<defs>
<linearGradient id="paint0_linear_1432_30335" x1="26.8424" y1="13.1597" x2="14.6138" y2="13.1597" gradientUnits="userSpaceOnUse">
<stop stop-color="#46B07F"/>
<stop offset="1" stop-color="#7BC363"/>
</linearGradient>
<linearGradient id="paint1_linear_1432_30335" x1="12.8478" y1="12.4733" x2="0.966797" y2="12.4733" gradientUnits="userSpaceOnUse">
<stop stop-color="#46B07F"/>
<stop offset="1" stop-color="#7BC363"/>
</linearGradient>
</defs>
</svg>
