<svg width="26" height="26" viewBox="0 0 26 26" fill="none" xmlns="http://www.w3.org/2000/svg">
<path fill-rule="evenodd" clip-rule="evenodd" d="M11.3315 3.69944C10.8703 4.04647 10.4323 4.59944 9.802 5.53594L9.35614 6.19839H8.55761H6.24637V8.50964V9.30816L5.58391 9.75403C4.64742 10.3843 4.09445 10.8223 3.74741 11.2835C3.45142 11.6768 3.25391 12.1586 3.25391 13.0004C3.25391 13.8422 3.45143 14.3239 3.74736 14.7172C4.09431 15.1782 4.64719 15.616 5.58359 16.2459L6.24637 16.6917V17.4905V19.8024H8.55761H9.35614L9.802 20.4649C10.4321 21.4011 10.8703 21.9539 11.3314 22.3008C11.7249 22.5968 12.2068 22.7942 13.0484 22.7942C13.89 22.7942 14.3715 22.5968 14.7648 22.3009C15.2259 21.9541 15.6638 21.4013 16.294 20.4649L16.7399 19.8024H17.5384H19.8504V17.4905V16.6917L20.5132 16.2459C21.4495 15.616 22.0021 15.1783 22.3489 14.7174C22.6447 14.3242 22.8421 13.8425 22.8421 13.0004C22.8421 12.1584 22.6447 11.6766 22.3488 11.2833C22.002 10.8222 21.4492 10.3843 20.5128 9.75403L19.8504 9.30816V8.50964V6.19839H17.5384H16.7399L16.294 5.53594C15.6636 4.59928 15.2258 4.04635 14.7648 3.69933C14.3717 3.40343 13.8902 3.20593 13.0484 3.20593C12.2066 3.20593 11.7248 3.40344 11.3315 3.69944ZM9.52765 1.3023C10.5014 0.569596 11.6357 0.205933 13.0484 0.205933C14.4611 0.205933 15.5953 0.569612 16.5689 1.30241C17.2597 1.82236 17.8192 2.49451 18.3246 3.19839H21.3504H22.8504V4.69839V7.72354C23.5544 8.2291 24.2264 8.78879 24.7463 9.47987C25.4788 10.4536 25.8421 11.5879 25.8421 13.0004C25.8421 14.4129 25.4788 15.5472 24.7462 16.5209C24.2264 17.2119 23.5543 17.7714 22.8504 18.2768V21.3024V22.8024H21.3504H18.3245C17.819 23.5064 17.2593 24.1784 16.5684 24.6982C15.5947 25.4307 14.4606 25.7942 13.0484 25.7942C11.6361 25.7942 10.5019 25.4308 9.52818 24.6984C8.83702 24.1785 8.27721 23.5065 7.77154 22.8024H4.74637H3.24637V21.3024V18.2768C2.54241 17.7715 1.87029 17.212 1.35033 16.5211C0.61756 15.5474 0.253906 14.4131 0.253906 13.0004C0.253906 11.5877 0.61757 10.4534 1.35028 9.47967C1.87023 8.78868 2.54239 8.22903 3.24637 7.72352V4.69839V3.19839H4.74637H7.77149C8.27701 2.49441 8.83666 1.82226 9.52765 1.3023Z" fill="url(#paint0_linear_1432_30326)"/>
<defs>
<linearGradient id="paint0_linear_1432_30326" x1="25.8421" y1="13.1041" x2="0.253906" y2="13.1041" gradientUnits="userSpaceOnUse">
<stop stop-color="#46B07F"/>
<stop offset="1" stop-color="#7BC363"/>
</linearGradient>
</defs>
</svg>
