<svg width="26" height="28" viewBox="0 0 26 28" fill="none" xmlns="http://www.w3.org/2000/svg">
<path d="M13.0051 14.0728C13.3361 14.0728 13.6535 13.9413 13.8875 13.7073C14.1216 13.4733 14.2531 13.1558 14.2531 12.8248V3.67396L17.0922 6.51314C17.2952 6.72088 17.5632 6.85278 17.8516 6.88685C18.14 6.92091 18.4314 6.85508 18.6772 6.70033C18.8335 6.59912 18.9651 6.46422 19.0625 6.30552C19.1599 6.14681 19.2205 5.96833 19.24 5.78315C19.2594 5.59797 19.2372 5.41079 19.1749 5.23532C19.1126 5.05985 19.0118 4.90054 18.88 4.76907L15.5323 1.42134C15.1709 1.05167 14.7348 0.763409 14.2531 0.575826C13.6193 0.331067 12.9281 0.275662 12.2635 0.416346C11.5988 0.557031 10.9893 0.887747 10.5091 1.3683L7.13016 4.76907C7.00073 4.8983 6.90127 5.0544 6.83885 5.22632C6.77643 5.39824 6.75255 5.58179 6.76893 5.76396C6.7853 5.94613 6.84151 6.12247 6.93359 6.28051C7.02567 6.43855 7.15136 6.57442 7.30176 6.67849C7.55577 6.84356 7.85951 6.91458 8.16037 6.87925C8.46123 6.84393 8.74025 6.70447 8.94911 6.48506L11.7571 3.67708V12.8248C11.7571 13.1558 11.8886 13.4733 12.1226 13.7073C12.3567 13.9413 12.6741 14.0728 13.0051 14.0728Z" fill="url(#paint0_linear_1432_30348)"/>
<path fill-rule="evenodd" clip-rule="evenodd" d="M5.86863 9.43873C6.33119 10.126 6.14904 11.0581 5.46178 11.5207C4.51943 12.1549 3.96177 12.5964 3.61152 13.0618C3.3123 13.4595 3.11304 13.9463 3.11304 14.7952C3.11304 15.6441 3.31231 16.1308 3.61147 16.5283C3.96163 16.9936 4.5192 17.4349 5.46146 18.0687L6.12423 18.5146V19.3133V21.6491H8.45934H9.25786L9.70373 22.3116C10.3378 23.2537 10.7794 23.8112 11.2449 24.1613C11.6427 24.4605 12.1296 24.6596 12.9782 24.6596C13.8268 24.6596 14.3135 24.4605 14.711 24.1614C15.1764 23.8113 15.6178 23.2539 16.252 22.3116L16.6979 21.6491H17.4964H19.8322V19.3133V18.5146L20.495 18.0687C21.4371 17.4349 21.9945 16.9937 22.3445 16.5285C22.6435 16.1311 22.8427 15.6443 22.8427 14.7952C22.8427 13.9461 22.6435 13.4592 22.3444 13.0616C21.9944 12.5963 21.4369 12.1549 20.4947 11.5207C19.8074 11.0581 19.6252 10.126 20.0878 9.43873C20.5504 8.75147 21.4825 8.56932 22.1697 9.03188C23.1093 9.66426 24.0571 10.348 24.7418 11.2582C25.4776 12.2363 25.8427 13.3756 25.8427 14.7952C25.8427 16.2147 25.4776 17.3541 24.7418 18.3321C24.2185 19.0276 23.5416 19.5908 22.8322 20.0997V23.1491V24.6491H21.3322H18.2826C17.7734 25.3586 17.2101 26.0355 16.5146 26.5587C15.5367 27.2944 14.3975 27.6596 12.9782 27.6596C11.5589 27.6596 10.4197 27.2945 9.44163 26.5588C8.74591 26.0356 8.18248 25.3587 7.67316 24.6491H4.62423H3.12423V23.1491V20.0998C2.41481 19.5908 1.73783 19.0277 1.21444 18.3323C0.478448 17.3543 0.113037 16.2149 0.113037 14.7952C0.113037 13.3754 0.478457 12.236 1.21438 11.258C1.89927 10.3479 2.84722 9.6642 3.78669 9.03188C4.47395 8.56932 5.40606 8.75147 5.86863 9.43873Z" fill="url(#paint1_linear_1432_30348)"/>
<defs>
<linearGradient id="paint0_linear_1432_30348" x1="19.2468" y1="7.26241" x2="6.76392" y2="7.26241" gradientUnits="userSpaceOnUse">
<stop stop-color="#46B07F"/>
<stop offset="1" stop-color="#7BC363"/>
</linearGradient>
<linearGradient id="paint1_linear_1432_30348" x1="25.8427" y1="18.2946" x2="0.113037" y2="18.2946" gradientUnits="userSpaceOnUse">
<stop stop-color="#46B07F"/>
<stop offset="1" stop-color="#7BC363"/>
</linearGradient>
</defs>
</svg>
