<svg width="29" height="26" viewBox="0 0 29 26" fill="none" xmlns="http://www.w3.org/2000/svg">
<path d="M28.6039 6.95741C28.603 6.00532 28.2244 5.09249 27.5511 4.41926C26.8779 3.74603 25.9651 3.36741 25.013 3.36649H24.909C24.8768 2.85376 24.7348 2.35394 24.4924 1.90093C24.2501 1.44793 23.9132 1.05232 23.5046 0.740935C23.096 0.429552 22.6252 0.209675 22.1241 0.0962115C21.6231 -0.0172518 21.1035 -0.0216478 20.6006 0.0833215L14.3571 1.38298L7.99612 0.0741867C7.49293 -0.0298305 6.97326 -0.0244075 6.47236 0.0900879C5.97145 0.204583 5.50104 0.425473 5.09301 0.737772C4.68499 1.05007 4.34891 1.44647 4.10756 1.90009C3.86622 2.35371 3.72527 2.85392 3.69426 3.36681H3.59094C2.6389 3.36773 1.72612 3.7463 1.0529 4.41947C0.379679 5.09263 0.0010196 6.00538 1.88629e-05 6.95741V15.2909C-0.00407012 17.0424 0.656767 18.7302 1.84903 20.0132C1.83403 20.0787 1.82622 20.1455 1.82572 20.2126V22.6519C1.82597 23.5385 2.17771 24.3887 2.80383 25.0163C3.42996 25.6439 4.27938 25.9977 5.1659 26C5.4132 25.9999 5.65974 25.9726 5.9011 25.9187L14.3007 24.0433L22.7 25.9187C22.9414 25.9726 23.1881 25.9999 23.4355 26C24.3225 25.9983 25.1725 25.6449 25.7992 25.0172C26.4259 24.3895 26.778 23.5389 26.7782 22.6519V20.2126C26.7779 20.146 26.7703 20.0795 26.7555 20.0145C27.9478 18.7305 28.6084 17.0418 28.6039 15.2896V6.95741ZM20.9719 1.87122C21.2287 1.81763 21.4943 1.82199 21.7492 1.88399C22.0041 1.94598 22.2419 2.06405 22.4454 2.22959C22.6489 2.39514 22.8129 2.60398 22.9255 2.84093C23.0381 3.07787 23.0964 3.33694 23.0962 3.59927V14.8625C23.095 15.2682 22.9545 15.6611 22.6984 15.9757C22.4422 16.2903 22.0859 16.5074 21.6889 16.5908L15.2189 17.9296L15.2687 3.05812L20.9719 1.87122ZM5.50767 3.59077C5.50825 3.12312 5.69429 2.67478 6.02497 2.3441C6.35565 2.01342 6.80398 1.82739 7.27163 1.82681C7.39183 1.82695 7.51171 1.83919 7.62946 1.86335L13.4439 3.06032L13.3945 17.9327L6.91537 16.5908C6.51829 16.5074 6.16186 16.2902 5.90565 15.9756C5.64943 15.6609 5.50895 15.2679 5.50767 14.8622V3.59077ZM5.50452 24.1362C5.28205 24.1859 5.05124 24.185 4.82918 24.1335C4.60711 24.082 4.39946 23.9812 4.22158 23.8386C4.04369 23.6961 3.90013 23.5154 3.80149 23.3098C3.70286 23.1043 3.65168 22.8793 3.65173 22.6513V21.4011C4.18776 21.6882 4.75878 21.9045 5.35049 22.0446L10.1113 23.1077L5.50452 24.1362ZM24.3824 23.8385C24.2045 23.9812 23.9969 24.082 23.7748 24.1336C23.5527 24.1851 23.3219 24.186 23.0994 24.1362L18.4901 23.1077L23.2645 22.0418C23.8521 21.9027 24.4193 21.6881 24.9519 21.4033V22.6519C24.9525 22.8799 24.9016 23.1051 24.803 23.3107C24.7043 23.5163 24.5606 23.6969 24.3824 23.8391V23.8385ZM26.7782 15.2902C26.7822 16.4402 26.3966 17.5577 25.6844 18.4606C24.9722 19.3636 23.9752 19.9987 22.8559 20.2627L14.3007 22.1725L5.75967 20.2652C4.63836 20.0027 3.6391 19.368 2.92488 18.4646C2.21067 17.5612 1.82365 16.4425 1.82698 15.2909V6.95741C1.82773 6.48981 2.01381 6.04158 2.34446 5.71093C2.6751 5.38029 3.12334 5.1942 3.59094 5.19345H3.68229V14.8637C3.68483 15.6891 3.97055 16.4886 4.49169 17.1287C5.01283 17.7687 5.73784 18.2105 6.54557 18.3803L14.1142 19.9461H14.1174L14.3026 19.9846L14.4843 19.9471H14.4881L22.059 18.3806C22.867 18.2108 23.5922 17.7687 24.1134 17.1284C24.6345 16.488 24.9201 15.6881 24.9223 14.8625V5.19219H25.0133C25.4809 5.19294 25.9291 5.37903 26.2598 5.70967C26.5904 6.04032 26.7765 6.48855 26.7773 6.95615L26.7782 15.2902Z" fill="white"/>
</svg>
